<?xml version="1.0" encoding="utf-8"?>
<svg version="1.1" width="148" height="148" style="" xmlns="http://www.w3.org/2000/svg">
  <defs>
    <radialGradient gradientUnits="userSpaceOnUse" cx="106.133" cy="12.517" r="74.082" id="gradient-0" gradientTransform="matrix(0.411056, 0.563056, -0.80767, 0.589635, 74.26147, -47.557075)">
      <stop offset="0" style="stop-color: rgb(85.49% 5.8824% 15.686%)"/>
      <stop offset="1" style="stop-color: rgb(56.951% 0% 8.1367%)"/>
    </radialGradient>
    <radialGradient gradientUnits="userSpaceOnUse" cx="7.124" cy="-32.192" r="33.049" id="gradient-1" gradientTransform="matrix(0.100547, 4.033032, -0.999689, 0.024923, -25.774295, -60.120998)">
      <stop offset="0" style="stop-color: rgb(85.49% 5.8824% 15.686%)"/>
      <stop offset="1" style="stop-color: rgb(56.951% 0% 8.1367%)"/>
    </radialGradient>
    <radialGradient gradientUnits="userSpaceOnUse" cx="-156.632" cy="58.063" r="74.082" id="gradient-2" gradientTransform="matrix(-0.515416, 0.393226, -0.433976, -0.568828, -85.439538, 111.879981)">
      <stop offset="0" style="stop-color: rgb(85.49% 5.8824% 15.686%)"/>
      <stop offset="1" style="stop-color: rgb(56.951% 0% 8.1367%)"/>
    </radialGradient>
    <radialGradient gradientUnits="userSpaceOnUse" cx="-8" cy="12" r="13" id="gradient-3">
      <stop offset="0" style="stop-color: rgb(85.49% 5.8824% 15.686%)"/>
      <stop offset="1" style="stop-color: rgb(56.951% 0% 8.1367%)"/>
    </radialGradient>
    <radialGradient gradientUnits="userSpaceOnUse" cx="2.5" cy="49" r="2.5" id="gradient-4">
      <stop offset="0" style="stop-color: rgb(85.49% 5.8824% 15.686%)"/>
      <stop offset="1" style="stop-color: rgb(56.951% 0% 8.1367%)"/>
    </radialGradient>
    <radialGradient gradientUnits="userSpaceOnUse" cx="1.566" cy="18.5" r="3.566" id="gradient-5">
      <stop offset="0" style="stop-color: rgb(85.49% 5.8824% 15.686%)"/>
      <stop offset="1" style="stop-color: rgb(56.951% 0% 8.1367%)"/>
    </radialGradient>
    <radialGradient gradientUnits="userSpaceOnUse" cx="-2.829" cy="17.685" r="8" id="gradient-7">
      <stop offset="0" style="stop-color: rgb(85.49% 5.8824% 15.686%)"/>
      <stop offset="1" style="stop-color: rgb(56.951% 0% 8.1367%)"/>
    </radialGradient>
    <radialGradient gradientUnits="userSpaceOnUse" cx="3.049" cy="4.984" r="4.049" id="gradient-11">
      <stop offset="0" style="stop-color: rgb(85.49% 5.8824% 15.686%)"/>
      <stop offset="1" style="stop-color: rgb(56.951% 0% 8.1367%)"/>
    </radialGradient>
    <radialGradient gradientUnits="userSpaceOnUse" cx="0.884" cy="22.377" r="4" id="gradient-13">
      <stop offset="0" style="stop-color: rgb(85.49% 5.8824% 15.686%)"/>
      <stop offset="1" style="stop-color: rgb(56.951% 0% 8.1367%)"/>
    </radialGradient>
  </defs>
  <path d="M 72 4 C 74.313 4.188 74.313 4.188 77 5 C 79.566 8.513 80.521 11.537 81.125 15.813 C 81.378 17.516 81.378 17.516 81.637 19.254 C 81.899 21.96 82.016 24.397 81.957 27.09 C 81.756 35.1 81.756 35.1 85.508 42.016 C 88.247 44.243 90.965 46.2 94 48 C 94.66 46.68 95.32 45.36 96 44 C 98.64 44 101.28 44 104 44 C 103.968 44.785 103.936 45.57 103.902 46.379 C 103.893 52.902 103.893 52.902 107.07 58.355 C 109.316 60.063 111.554 61.597 114 63 C 114.99 60.03 114.99 60.03 116 57 C 118.333 56.958 120.667 56.959 123 57 C 123.33 57.33 123.66 57.66 124 58 C 123.942 58.855 123.884 59.709 123.824 60.59 C 123.491 66.981 123.491 66.981 126.304 72.512 C 129.644 75.378 133.352 77.636 137.132 79.871 C 145.449 84.898 145.449 84.898 147.438 88.875 C 148.057 92.314 148.139 95.513 148 99 C 144.81 97.758 141.667 96.426 138.531 95.055 C 137.713 94.7 136.894 94.346 136.051 93.98 C 134.347 93.242 132.647 92.497 130.949 91.746 C 130.131 91.394 129.312 91.042 128.469 90.68 C 127.731 90.357 126.993 90.035 126.232 89.703 C 123.971 88.865 123.971 88.865 121.365 89.02 C 119 89 119 89 116.688 87 C 116.131 86.34 115.574 85.68 115 85 C 115 85.66 115 86.32 115 87 C 113.68 87 112.36 87 111 87 C 111 85.68 111 84.36 111 83 C 109.02 82.505 109.02 82.505 107 82 C 107 82.66 107 83.32 107 84 C 106.01 84 105.02 84 104 84 C 103.691 83.041 103.691 83.041 103.375 82.063 C 102.116 79.649 102.116 79.649 98.938 79.375 C 97.483 79.189 97.483 79.189 96 79 C 95.67 78.34 95.34 77.68 95 77 C 93.02 77 91.04 77 89 77 C 89 76.34 89 75.68 89 75 C 87.02 74.67 87.437 75.06 83.959 74.48 C 87.757 74.597 82.962 75.316 82.924 76.659 C 82.829 79.935 82.729 83.211 82.628 86.488 C 82.585 87.902 82.543 89.316 82.503 90.73 C 82.444 92.771 82.381 94.811 82.316 96.852 C 82.28 98.077 82.243 99.302 82.205 100.565 C 82 104 82 104 81.326 107.275 C 81.165 108.624 81.165 108.624 81 110 C 82.961 112.184 84.628 113.707 86.938 115.438 C 87.533 115.916 88.128 116.394 88.741 116.886 C 91.327 118.961 93.956 120.967 96.613 122.949 C 101.69 126.931 101.69 126.931 102.703 130.426 C 102.966 132.653 103.081 134.761 103 137 C 96.941 136.416 91.726 134.613 86.063 132.438 C 85.188 132.108 84.313 131.779 83.412 131.439 C 81.272 130.633 79.136 129.817 77 129 C 76.67 133.95 76.34 138.9 76 144 C 75.01 144 74.02 144 73 144 C 72.257 140.38 71.942 136.96 71.969 133.277 C 71.973 132.474 71.978 131.671 71.982 130.844 C 71.991 129.931 71.991 129.931 72 129 C 71.36 129.242 70.719 129.485 70.06 129.734 C 67.147 130.831 64.23 131.916 61.313 133 C 60.305 133.382 59.298 133.763 58.26 134.156 C 57.283 134.517 56.307 134.878 55.301 135.25 C 54.405 135.585 53.51 135.92 52.587 136.266 C 49.929 137.02 47.748 137.139 45 137 C 44.954 132.767 45.422 128.848 48.258 125.527 C 52.337 121.605 56.91 117.728 61.86 114.96 C 65.595 112.801 65.595 112.801 67.535 109.127 C 67.618 106.847 67.477 104.687 67.246 102.418 C 67.192 101.604 67.138 100.79 67.082 99.951 C 66.901 97.359 66.67 94.775 66.438 92.188 C 66.306 90.428 66.178 88.668 66.053 86.908 C 65.74 82.602 65.382 78.301 65 74 C 64.218 74.317 63.435 74.634 62.629 74.961 C 58.792 76.477 56.175 77 52 77 C 52 77.66 52 78.32 52 79 C 48.535 79.495 48.535 79.495 45 80 C 45 81.32 45 82.64 45 84 C 44.216 83.814 43.433 83.629 42.625 83.438 C 40.029 82.74 40.029 82.74 38 84 C 37.348 86.025 37.348 86.025 37 88 C 36.01 88 35.02 88 34 88 C 33.01 87.01 33.01 87.01 32 86 C 31.34 86 30.68 86 30 86 C 29.67 87.32 29.34 88.64 29 90 C 28.442 89.798 27.884 89.596 27.309 89.387 C 24.318 88.886 22.821 89.6 20.051 90.801 C 18.656 91.401 18.656 91.401 17.232 92.014 C 16.269 92.442 15.305 92.871 14.313 93.313 C 13.337 93.73 12.362 94.147 11.357 94.576 C 6.361 96.349 6.361 96.349 3 100 C 2.01 100 1.02 100 0 100 C -0.321 94.758 -0.059 90.363 3 86 C 7.265 82.403 11.985 79.4 16.682 76.4 C 22.188 72.697 22.188 72.697 24.643 66.806 C 24.644 63.799 24.461 60.969 24 58 C 26.97 58 29.94 58 33 58 C 33 59.65 33 61.3 33 63 C 34.48 62.022 35.959 61.043 37.438 60.063 C 38.261 59.517 39.085 58.972 39.934 58.41 C 41.9 57.162 41.9 57.162 43 56 C 43.234 53.984 43.413 51.962 43.563 49.938 C 43.646 48.833 43.73 47.728 43.816 46.59 C 43.907 45.308 43.907 45.308 44 44 C 46.64 44 49.28 44 52 44 C 52.66 45.32 53.32 46.64 54 48 C 55.646 46.688 57.292 45.376 58.938 44.063 C 59.854 43.332 60.771 42.601 61.715 41.848 C 64.582 39.819 64.582 39.819 65.265 36.687 C 65.331 35.683 65.397 34.679 65.465 33.645 C 65.582 31.998 65.582 31.998 65.701 30.318 C 65.857 28.001 66.011 25.683 66.162 23.365 C 66.241 22.261 66.321 21.157 66.402 20.02 C 66.469 19.01 66.536 18 66.605 16.96 C 67.282 11.887 68.685 7.917 72 4 Z" style="fill: url('#gradient-0');"/>
  <path d="M0 0 C0.74734361 4.65214935 1.11936092 9.09867942 1.09765625 13.80859375 C1.09282227 15.66967773 1.09282227 15.66967773 1.08789062 17.56835938 C1.07532227 19.48358398 1.07532227 19.48358398 1.0625 21.4375 C1.05798828 22.74138672 1.05347656 24.04527344 1.04882812 25.38867188 C1.03709251 28.59249552 1.02067363 31.79622363 1 35 C0.505 33.02 0.505 33.02 0 31 C-2.46070116 31.61667207 -4.91826521 32.24288393 -7.375 32.875 C-8.07367188 33.04902344 -8.77234375 33.22304687 -9.4921875 33.40234375 C-13.64874736 34.44145274 -13.64874736 34.44145274 -17 37 C-20.125 37.125 -20.125 37.125 -23 37 C-23 37.99 -23 38.98 -23 40 C-24.11375 40.0825 -25.2275 40.165 -26.375 40.25 C-30.05753944 40.57873787 -30.05753944 40.57873787 -31.4375 43.0625 C-31.7159375 44.0215625 -31.7159375 44.0215625 -32 45 C-32 44.01 -32 43.02 -32 42 C-32.9286084 42.39380859 -33.8572168 42.78761719 -34.81396484 43.19335938 C-38.25271611 44.65057301 -41.69343104 46.10309807 -45.13476562 47.55419922 C-46.62521672 48.18345026 -48.1151289 48.81397934 -49.60449219 49.44580078 C-51.74274259 50.35263534 -53.88287552 51.25488789 -56.0234375 52.15625 C-56.69120209 52.44060913 -57.35896667 52.72496826 -58.04696655 53.01794434 C-62.77225659 55 -62.77225659 55 -65 55 C-64.61005711 48.68445431 -64.61005711 48.68445431 -61.91796875 45.6640625 C-61.01691406 44.99117187 -60.11585937 44.31828125 -59.1875 43.625 C-58.20523438 42.86058594 -57.22296875 42.09617188 -56.2109375 41.30859375 C-54.02419386 39.73637296 -51.87627681 38.27179687 -49.6015625 36.84765625 C-43.33693161 33.03339673 -43.33693161 33.03339673 -40.24609375 26.765625 C-40.24963501 23.74847232 -40.45820125 20.96484314 -41 18 C-39.35 18 -37.7 18 -36 18 C-35.34 20.31 -34.68 22.62 -34 25 C-25.85724889 20.45816365 -25.85724889 20.45816365 -21.203125 12.953125 C-21.24572831 10.21231184 -21.45803148 7.68475144 -22 5 C-20.02 5 -18.04 5 -16 5 C-15.505 7.97 -15.505 7.97 -15 11 C-14.00097656 10.2059375 -13.00195312 9.411875 -11.97265625 8.59375 C-10.66937111 7.56237327 -9.36598024 6.53113014 -8.0625 5.5 C-7.40314453 4.97535156 -6.74378906 4.45070313 -6.06445312 3.91015625 C-1.11328125 0 -1.11328125 0 0 0 Z " transform="translate(67,41)" style="fill: url('#gradient-1');"/>
  <path d="M0 0 C2.3125 0.1875 2.3125 0.1875 5 1 C7.56598743 4.51333242 8.52130913 7.53727101 9.125 11.8125 C9.37830078 13.51599609 9.37830078 13.51599609 9.63671875 15.25390625 C9.89910245 17.95956187 10.01608586 20.39682634 9.95703125 23.08984375 C9.75646174 31.10037987 9.75646174 31.10037987 13.5078125 38.015625 C16.24710714 40.24349123 18.96525409 42.2001507 22 44 C22.66 42.68 23.32 41.36 24 40 C26.64 40 29.28 40 32 40 C31.96777344 40.78503906 31.93554688 41.57007813 31.90234375 42.37890625 C31.89255651 48.90186315 31.89255651 48.90186315 35.0703125 54.35546875 C37.31626433 56.06281458 39.553963 57.59661716 42 59 C42.99 56.03 42.99 56.03 44 53 C46.33294775 52.95758277 48.66702567 52.95907063 51 53 C51.33 53.33 51.66 53.66 52 54 C51.94199219 54.85464844 51.88398437 55.70929687 51.82421875 56.58984375 C51.49068507 62.98063202 51.49068507 62.98063202 54.30419922 68.51220703 C57.6438911 71.37751655 61.35224914 73.63615113 65.1315918 75.87060547 C73.4491573 80.89831461 73.4491573 80.89831461 75.4375 84.875 C76.05654363 88.31413126 76.13949481 91.51262965 76 95 C72.80994244 93.75796939 69.66708396 92.42628983 66.53125 91.0546875 C65.71269531 90.70019531 64.89414063 90.34570312 64.05078125 89.98046875 C62.34739728 89.24224874 60.64686087 88.49742388 58.94921875 87.74609375 C58.13066406 87.39417969 57.31210938 87.04226562 56.46875 86.6796875 C55.73076172 86.35726074 54.99277344 86.03483398 54.23242188 85.70263672 C51.97117067 84.86519645 51.97117067 84.86519645 49.36523438 85.02001953 C47 85 47 85 44.6875 83 C44.130625 82.34 43.57375 81.68 43 81 C43 81.66 43 82.32 43 83 C41.68 83 40.36 83 39 83 C39 81.68 39 80.36 39 79 C37.02 78.505 37.02 78.505 35 78 C35 78.66 35 79.32 35 80 C34.01 80 33.02 80 32 80 C31.690625 79.0409375 31.690625 79.0409375 31.375 78.0625 C30.11582828 75.6491645 30.11582828 75.6491645 26.9375 75.375 C25.4834375 75.189375 25.4834375 75.189375 24 75 C23.67 74.34 23.34 73.68 23 73 C21.02 73 19.04 73 17 73 C17 72.34 17 71.68 17 71 C15.02 70.67 13.04 70.34 11 70 C10.96241577 71.31605225 10.96241577 71.31605225 10.92407227 72.65869141 C10.82854616 75.93517191 10.72933757 79.21149898 10.62768555 82.48779297 C10.58455749 83.90181165 10.54286832 85.31587502 10.50268555 86.72998047 C10.4444425 88.7706444 10.38090859 90.81108795 10.31640625 92.8515625 C10.27974854 94.07697754 10.24309082 95.30239258 10.20532227 96.56494141 C10 100 10 100 9.32617188 103.27514648 C9.1647168 104.62394897 9.1647168 104.62394897 9 106 C10.96066911 108.18439047 12.62845115 109.70664896 14.9375 111.4375 C15.53272461 111.91558105 16.12794922 112.39366211 16.74121094 112.88623047 C19.32686928 114.96106363 21.95588535 116.96709535 24.61328125 118.94921875 C29.6901039 122.93085845 29.6901039 122.93085845 30.703125 126.42578125 C30.96633112 128.65264356 31.08122006 130.76137207 31 133 C24.94114192 132.41631082 19.72641954 130.61261739 14.0625 128.4375 C13.18787109 128.10814453 12.31324219 127.77878906 11.41210938 127.43945312 C9.27233432 126.63265269 7.13582374 125.81720329 5 125 C4.67 129.95 4.34 134.9 4 140 C3.01 140 2.02 140 1 140 C0.25741203 136.37988365 -0.05815773 132.96033933 -0.03125 129.27734375 C-0.02673828 128.47417725 -0.02222656 127.67101074 -0.01757812 126.84350586 C-0.00887695 125.93097046 -0.00887695 125.93097046 0 125 C-0.64026123 125.24234375 -1.28052246 125.4846875 -1.94018555 125.734375 C-4.85284259 126.8314011 -7.77004614 127.91579869 -10.6875 129 C-11.69490234 129.3815625 -12.70230469 129.763125 -13.74023438 130.15625 C-14.71669922 130.5171875 -15.69316406 130.878125 -16.69921875 131.25 C-17.59471436 131.58515625 -18.49020996 131.9203125 -19.4128418 132.265625 C-22.07103344 133.02016312 -24.25228839 133.13857647 -27 133 C-27.04591443 128.76668954 -26.57827155 124.84785209 -23.7421875 121.52734375 C-19.66250585 117.60457294 -15.09031738 113.72835715 -10.13980103 110.95962524 C-6.40541582 108.80136779 -6.40541582 108.80136779 -4.46543884 105.12672424 C-4.38202112 102.84749935 -4.52259139 100.68697754 -4.75390625 98.41796875 C-4.80820297 97.60378983 -4.86249969 96.7896109 -4.91844177 95.95075989 C-5.09912161 93.35916999 -5.32999194 90.77490353 -5.5625 88.1875 C-5.69408766 86.42798042 -5.82238084 84.66821115 -5.94726562 82.90820312 C-6.26006941 78.60164154 -6.61792575 74.30094679 -7 70 C-7.78246094 70.31710938 -8.56492188 70.63421875 -9.37109375 70.9609375 C-13.20762435 72.47730769 -15.82546974 73 -20 73 C-20 73.66 -20 74.32 -20 75 C-23.465 75.495 -23.465 75.495 -27 76 C-27 77.32 -27 78.64 -27 80 C-27.78375 79.814375 -28.5675 79.62875 -29.375 79.4375 C-31.97089775 78.74037734 -31.97089775 78.74037734 -34 80 C-34.65213292 82.02463255 -34.65213292 82.02463255 -35 84 C-35.99 84 -36.98 84 -38 84 C-38.99 83.01 -38.99 83.01 -40 82 C-40.66 82 -41.32 82 -42 82 C-42.33 83.32 -42.66 84.64 -43 86 C-43.55792236 85.79785889 -44.11584473 85.59571777 -44.69067383 85.38745117 C-47.68245175 84.88550048 -49.17908898 85.59989426 -51.94921875 86.80078125 C-53.34430664 87.40116211 -53.34430664 87.40116211 -54.76757812 88.01367188 C-55.73115234 88.44228516 -56.69472656 88.87089844 -57.6875 89.3125 C-58.66267578 89.72951172 -59.63785156 90.14652344 -60.64257812 90.57617188 C-65.63879994 92.34945451 -65.63879994 92.34945451 -69 96 C-69.99 96 -70.98 96 -72 96 C-72.3209162 90.75836875 -72.05897011 86.36314303 -69 82 C-64.73547993 78.40276572 -60.01530771 75.3999421 -55.31835938 72.40039062 C-49.81227305 68.69735966 -49.81227305 68.69735966 -47.35693359 62.80615234 C-47.35560919 59.79930596 -47.5386087 56.96875006 -48 54 C-45.03 54 -42.06 54 -39 54 C-39 55.65 -39 57.3 -39 59 C-37.51990357 58.02223933 -36.04094856 57.0427506 -34.5625 56.0625 C-33.73878906 55.51722656 -32.91507813 54.97195312 -32.06640625 54.41015625 C-30.10014075 53.16197019 -30.10014075 53.16197019 -29 52 C-28.76572222 49.98405418 -28.58663876 47.961526 -28.4375 45.9375 C-28.35371094 44.83277344 -28.26992188 43.72804687 -28.18359375 42.58984375 C-28.09271484 41.30787109 -28.09271484 41.30787109 -28 40 C-25.36 40 -22.72 40 -20 40 C-19.34 41.32 -18.68 42.64 -18 44 C-16.35357683 42.68823998 -14.70787757 41.3755713 -13.0625 40.0625 C-12.14597656 39.33160156 -11.22945312 38.60070313 -10.28515625 37.84765625 C-7.41760331 35.81902217 -7.41760331 35.81902217 -6.73461914 32.68676758 C-6.66879639 31.68282959 -6.60297363 30.6788916 -6.53515625 29.64453125 C-6.41817383 27.99807617 -6.41817383 27.99807617 -6.29882812 26.31835938 C-6.14260425 24.00082339 -5.98891401 21.68311507 -5.83789062 19.36523438 C-5.75861328 18.26115234 -5.67933594 17.15707031 -5.59765625 16.01953125 C-5.53070557 15.00995361 -5.46375488 14.00037598 -5.39477539 12.96020508 C-4.71818583 7.88682946 -3.31471122 3.91738599 0 0 Z M-0.5625 3.5 C-4.56045715 10.45296896 -4.36041706 18.41208609 -4.56640625 26.19726562 C-4.92856538 36.0306732 -4.92856538 36.0306732 -8.38183594 39.3137207 C-10.0871735 40.71532328 -11.83470952 42.02142513 -13.625 43.3125 C-14.23601563 43.76689453 -14.84703125 44.22128906 -15.4765625 44.68945312 C-16.97696011 45.80302947 -18.48750619 46.90290942 -20 48 C-20.495 45.03 -20.495 45.03 -21 42 C-22.98 42 -24.96 42 -27 42 C-26.86078125 42.68964844 -26.7215625 43.37929688 -26.578125 44.08984375 C-26.19591075 47.40691746 -26.15045278 49.7517312 -27 53 C-30.61111266 56.69558313 -34.58973148 59.34202567 -39 62 C-39.99 58.535 -39.99 58.535 -41 55 C-42.65 55 -44.3 55 -46 55 C-45.68675781 56.05574219 -45.68675781 56.05574219 -45.3671875 57.1328125 C-44.72798069 61.01878409 -44.75953087 63.21677522 -46 67 C-51.07540078 72.65305282 -57.76847633 76.73682232 -64 81 C-68.31246447 83.90904462 -68.31246447 83.90904462 -69.8125 88.75 C-69.874375 89.8225 -69.93625 90.895 -70 92 C-62.30478071 89.92952306 -55.14518139 87.05448292 -47.875 83.8125 C-46.823125 83.34908203 -45.77125 82.88566406 -44.6875 82.40820312 C-42.12264496 81.27733522 -39.56026819 80.14120481 -37 79 C-36.67 79.99 -36.34 80.98 -36 82 C-35.505 80.02 -35.505 80.02 -35 78 C-32.69 77.67 -30.38 77.34 -28 77 C-28 76.01 -28 75.02 -28 74 C-25.69 74 -23.38 74 -21 74 C-20.67 73.34 -20.34 72.68 -20 72 C-17.47630543 71.20058692 -15.00281094 70.5063892 -12.4375 69.875 C-11.72658203 69.69324219 -11.01566406 69.51148437 -10.28320312 69.32421875 C-8.52397031 68.87555535 -6.76220583 68.43684043 -5 68 C-4.97494385 68.86165771 -4.9498877 69.72331543 -4.92407227 70.61108398 C-4.82818312 73.84848429 -4.72900214 77.08576339 -4.62768555 80.32299805 C-4.58472646 81.71651349 -4.54302945 83.1100685 -4.50268555 84.50366211 C-4.44402281 86.52209468 -4.38091339 88.5403402 -4.31640625 90.55859375 C-4.27572021 91.84693115 -4.23503418 93.13526855 -4.19311523 94.46264648 C-4.03057005 97.44003868 -3.6848373 100.25247038 -3.1953125 103.1875 C-3 107 -3 107 -4.73828125 109.56640625 C-5.58777344 110.22511719 -6.43726563 110.88382812 -7.3125 111.5625 C-8.22644531 112.30113281 -9.14039063 113.03976563 -10.08203125 113.80078125 C-11.04496094 114.52652344 -12.00789063 115.25226563 -13 116 C-14.83785218 117.41079939 -16.67143226 118.82718744 -18.5 120.25 C-19.3146875 120.85328125 -20.129375 121.4565625 -20.96875 122.078125 C-23.294882 124.27900373 -24.17579501 125.91904324 -25 129 C-24.67 129.99 -24.34 130.98 -24 132 C-23.38479492 131.76289307 -22.76958984 131.52578613 -22.13574219 131.28149414 C-19.34141603 130.20608439 -16.54572901 129.13425719 -13.75 128.0625 C-12.78191406 127.68931641 -11.81382813 127.31613281 -10.81640625 126.93164062 C-9.88183594 126.57392578 -8.94726562 126.21621094 -7.984375 125.84765625 C-7.12553711 125.51773682 -6.26669922 125.18781738 -5.38183594 124.84790039 C-3 124 -3 124 1 123 C1.495 130.92 1.495 130.92 2 139 C2.33 139 2.66 139 3 139 C3.33 134.05 3.66 129.1 4 124 C10.72205083 125.17930716 16.68103683 127.33961423 22.94555664 129.96728516 C26.35532939 131.48500259 26.35532939 131.48500259 30 132 C29.11073815 125.34156004 27.14125543 122.58338764 21.92773438 118.41796875 C21.14720703 117.82628906 20.36667969 117.23460938 19.5625 116.625 C18.78583984 116.01011719 18.00917969 115.39523438 17.20898438 114.76171875 C14.19915415 112.39222278 11.18836807 110.12557872 8 108 C7.73535156 104.96240234 7.73535156 104.96240234 7.890625 101.0859375 C7.91469421 100.39746735 7.93876343 99.70899719 7.96356201 98.99966431 C8.04477822 96.79062725 8.14755292 94.5831434 8.25 92.375 C8.30470726 90.91020502 8.35810758 89.44536061 8.41015625 87.98046875 C8.66878942 81.2666961 9.10352983 74.65883255 10 68 C16.15234375 68.5859375 16.15234375 68.5859375 18 69 C18.33 69.66 18.66 70.32 19 71 C20.98507977 71.61559872 20.98507977 71.61559872 23.3125 72 C26.52950061 72.59554391 29.19449839 73.27721863 32 75 C32.99 76.485 32.99 76.485 34 78 C34 77.34 34 76.68 34 76 C37.37503669 77.1858237 39.64722731 78.27573689 42 81 C42 80.34 42 79.68 42 79 C45.65316671 80.24976756 46.78065836 80.67098753 49 84 C49 83.34 49 82.68 49 82 C52.95881225 83.64468307 56.91696782 85.29094064 60.875 86.9375 C62.00292969 87.40607422 63.13085938 87.87464844 64.29296875 88.35742188 C65.36933594 88.80537109 66.44570312 89.25332031 67.5546875 89.71484375 C68.54968262 90.12855225 69.54467773 90.54226074 70.56982422 90.96850586 C72.06527266 91.60325266 73.5469289 92.27346445 75 93 C74.65536154 88.83963739 74.13688871 85.28366858 71.30566406 82.08691406 C69.14373995 80.31492835 66.93169522 78.70366849 64.625 77.125 C63.85671875 76.57070312 63.0884375 76.01640625 62.296875 75.4453125 C60.86685005 74.41609039 59.42964291 73.39671451 57.98291016 72.39111328 C56.58339231 71.40927966 55.21538392 70.38177944 53.87255859 69.32373047 C52.11000821 67.80758561 52.11000821 67.80758561 50 68 C50 63.71 50 59.42 50 55 C48.02 55 46.04 55 44 55 C44 57.31 44 59.62 44 62 C39.26546357 59.36608894 34.95136418 56.73273269 31 53 C29.89660717 49.10567237 30.14101575 45.92783396 31 42 C27.95086772 40.98888907 27.95086772 40.98888907 25 42 C24.34227572 45.02934491 24.34227572 45.02934491 24 48 C21.67760602 46.26195031 19.36758915 44.51073865 17.0625 42.75 C16.40314453 42.25886719 15.74378906 41.76773438 15.06445312 41.26171875 C14.43603516 40.77832031 13.80761719 40.29492188 13.16015625 39.796875 C12.57886963 39.35698242 11.99758301 38.91708984 11.39868164 38.46386719 C8.78658664 35.73003551 8.87853453 32.42871526 8.7890625 28.8046875 C8.38272663 14.99688648 8.38272663 14.99688648 4 2 C0.99969942 1.65373409 0.99969942 1.65373409 -0.5625 3.5 Z " transform="translate(72,4)" style="fill: url('#gradient-2');"/>
  <path d="M0 0 C0.66 0 1.32 0 2 0 C2.19916016 1.03060547 2.19916016 1.03060547 2.40234375 2.08203125 C2.57894531 2.98308594 2.75554687 3.88414063 2.9375 4.8125 C3.11152344 5.70582031 3.28554687 6.59914063 3.46484375 7.51953125 C3.97741153 10.11397171 3.97741153 10.11397171 5 13 C-0.09532626 16.82572669 -5.35807867 18.75008178 -11.375 20.75 C-12.30183594 21.06582031 -13.22867188 21.38164062 -14.18359375 21.70703125 C-16.45321441 22.47917024 -18.72521887 23.24322849 -21 24 C-20.50304967 17.63139036 -20.50304967 17.63139036 -18.28515625 14.84765625 C-17.18494141 13.96400391 -17.18494141 13.96400391 -16.0625 13.0625 C-15.25941406 12.4025 -14.45632812 11.7425 -13.62890625 11.0625 C-12.76136719 10.381875 -11.89382812 9.70125 -11 9 C-9.62134766 7.88625 -9.62134766 7.88625 -8.21484375 6.75 C-6.47320367 5.34666411 -4.72503119 3.95137491 -2.96875 2.56640625 C-1.11205357 1.14974761 -1.11205357 1.14974761 0 0 Z " transform="translate(68,112)" style="fill: url('#gradient-3');"/>
  <path d="M0 0 C0.33 0 0.66 0 1 0 C1.97548719 4.22984362 2.33179049 8.42715761 2.5625 12.75 C2.6049585 13.53479736 2.64741699 14.31959473 2.69116211 15.12817383 C3.33527409 29.06665337 3.08115062 43.05083306 3 57 C3.66 57 4.32 57 5 57 C4.86215088 57.57395508 4.72430176 58.14791016 4.58227539 58.73925781 C3.02315191 65.76053141 2.61283323 72.57416689 2.4375 79.75 C2.37723418 81.93239219 2.31354301 84.11469301 2.24609375 86.296875 C2.21020142 87.72531738 2.21020142 87.72531738 2.17358398 89.18261719 C1.98919177 92.17542469 1.5403572 95.05239911 1 98 C0.67 98 0.34 98 0 98 C0 65.66 0 33.32 0 0 Z " transform="translate(78,13)" style="fill: url('#gradient-4');"/>
  <path d="M0 0 C0.99 0 1.98 0 3 0 C3 3.3 3 6.6 3 10 C3.66 10.33 4.32 10.66 5 11 C5.25174014 17.54524362 5.25174014 17.54524362 4.03125 19.75 C2.54824821 22.98564027 2.53386228 26.2484105 2.375 29.75 C2.33632812 30.44738281 2.29765625 31.14476562 2.2578125 31.86328125 C2.16401376 33.57510818 2.08093826 35.28751682 2 37 C1.67 37 1.34 37 1 37 C0.95101562 35.85660156 0.90203125 34.71320313 0.8515625 33.53515625 C0.77654811 32.04424527 0.70099972 30.55336108 0.625 29.0625 C0.57859375 27.93038086 0.57859375 27.93038086 0.53125 26.77539062 C0.4273685 24.84492605 0.22104386 22.92057919 0 21 C-0.66 20.67 -1.32 20.34 -2 20 C-2 17 -2 17 -1 14 C-0.77439324 11.60745424 -0.59151405 9.21071877 -0.4375 6.8125 C-0.35371094 5.54019531 -0.26992187 4.26789063 -0.18359375 2.95703125 C-0.12300781 1.98121094 -0.06242187 1.00539063 0 0 Z " transform="translate(73,106)" style="fill: url('#gradient-5');"/>
  <path d="M0 0 C5.23272633 1.63958758 10.15196636 3.38952035 15 6 C14.67 6.99 14.34 7.98 14 9 C9.38 7.02 4.76 5.04 0 3 C-0.33 3.66 -0.66 4.32 -1 5 C-0.67 3.35 -0.34 1.7 0 0 Z " transform="translate(121,83)" style="fill: url('#gradient-7');"/>
  <path d="M0 0 C1.99954746 -0.04254356 4.00041636 -0.04080783 6 0 C7 1 7 1 7.09765625 2.84765625 C7.04882812 5.92382812 7.04882812 5.92382812 7 9 C6.01 9.495 6.01 9.495 5 10 C5 7.36 5 4.72 5 2 C3.02 2 1.04 2 -1 2 C-0.67 1.34 -0.34 0.68 0 0 Z " transform="translate(117,57)" style="fill: url('#gradient-11');"/>
  <path d="M0 0 C5.75 0.875 5.75 0.875 8 2 C8 2.66 8 3.32 8 4 C6.02 4 4.04 4 2 4 C1.34 2.68 0.68 1.36 0 0 Z " transform="translate(94,75)" style="fill: url('#gradient-13');"/>
</svg>